<?xml version="1.0" encoding="UTF-8"?>
<svg version="1.1" viewBox="0 0 2000 1500" width="1280" height="1280" xmlns="http://www.w3.org/2000/svg">
<path transform="translate(0)" d="m0 0h2e3v1500h-2e3z" fill="#3A3D52"/>
<path transform="translate(1592,332)" d="m0 0 22 1 17 3 17 5 17 8 15 10 13 11 10 10 11 14 7 10 6 12 7 21 5 21 4 24 3 31 3 47v61l-1 35-2 102-3 53-2 31-1 23-2 116-3 38-5 32-7 28-8 20-7 12-3 3-65 19-44 12-22 5-44 5-39 3-43 2h-289l-48 2-49 4h-15l-17-2-20-1h-30l-69 3h-58l-4-7h-5l-7 6-9 1-11-4-10-4h-10l-10 6-3 1h-13l-16-6-11-4-5-1h-7l-8 3-9 8-3-4-5-21-3-6-3-1-2 5-5 8-4 1-1 2 1 17-5-1-4-8-7-30-2-8-5 1-3 5 1 3 4 2v12l-2 2h-6l-1 3-1 12-4 6-4 2-6-4-7-9-5-1-5 1v-18l-6 3-9 9-6-1-24-8-24-5-25-3-17-1-95-1-27-2-25-4-26-7-24-10-20-11-14-10-11-9-11-10v-8l6-19v-7l-6-8-1-20-3-19-4-22v-17l2-11-3-7-1-5 1-13 6-20 1-5v-18l4-4 5-2h12l3-7 2-13 7-14 7-7 14-7 18-6 4-1-7-27-4-19-2-16v-23l3-19 3-11-1-5-4-4-16-8-5-6-5-12v-2l-5 3-4 1-1-1-3-24-6-24-20-60-5-19-5-26v-20l3-12 5-10 8-10 12-9 16-8 23-7 43-9 12-4 5-3 49-11 42-8 53-8 52-6 46-4 50-3 56-2 85-1 102 1 113 2h129l72-7 115-12 56-5 47-3 22-1 44-1 39-7 23-3z" fill="#fff"/>
<path transform="translate(543,432)" d="m0 0h16l14 3 10 6 6 7 1 2 47 5 43 7 36 8 29 8 32 11 26 11 26 13 20 12 17 12 14 11 12 11 14 14 11 14 10 14 10 18 9 19 10 30 5 24 3 22 1 14v39l-3 30-5 26-7 24-8 21-11 23-11 18-10 14-11 14-14 15-12 12-11 9-17 13-15 10-21 12-16 8-22 10-31 11-29 8-34 7-37 5-24 2-22 1h-91l-13-2-11-4-8-6-6-12-2-11v-11l3-14 5-8 7-6 11-4h32l-13-444v-11h-13l-13-3-10-6-6-9-3-8-1-15 2-13 4-9 7-8 8-5 13-3h19l2-5 8-6 11-4z" fill="#3A3D52"/>
<path transform="translate(1113,449)" d="m0 0h18l11 3 10 6 7 7 5 10 2 9 1 131v56l15-10 25-17 32-22 40-28 18-13 20-14 18-13 16-11 20-14 17-12 54-39 21-16 12-7 9-3 10-1 14 2 12 6 7 6 6 9 4 10 1 12-2 11-5 10-7 7-13 10-20 15-20 14-28 19-18 12-23 15-17 11-26 17-25 16-23 15-68 44-24 15-18 12 6 7 11 9 14 13 8 7 14 12 10 9 11 9 12 11 11 9 11 10 11 9 10 9 11 9 15 13 14 12 11 9 13 11 14 11 16 13 16 12 18 14 21 16 19 14 10 8 7 9 4 10 1 4v13l-3 11-6 10-9 8-10 5-9 2h-13l-11-3-8-4-17-14-14-11-17-14-16-13-34-28-26-22-11-9-10-9-11-9-10-9-11-9-10-9-11-9-14-13-8-7-10-9-12-11-10-9-17-16-14-14-2-1v34l-2 135-1 48-4 12-8 11-9 6-10 4-6 1h-16l-13-3-8-5-7-7-5-12-2-17 1-85 2-83 1-57v-111l-1-106v-98l3-10 6-9 8-7 10-5z" fill="#3A3D52"/>
<path transform="translate(596,531)" d="m0 0h11l37 5 36 7 27 7 36 12 25 11 23 12 17 11 14 11 17 17 11 15 9 16 8 18 6 21 4 24 1 10v37l-3 25-6 25-7 19-8 16-6 11-12 17-11 13-19 19-14 11-13 9-15 9-16 8-20 9-33 11-30 7-31 5-26 2-5-176-7-255z" fill="#fff"/>
</svg>
